M48
METRIC,LZ,000.000
;FILE_FORMAT=3:3
;TYPE=PLATED
;Layer: PTH_Through
;EasyEDA v6.5.37, 2023-10-24 23:36:19
;78d52bff66364ecaa542ea5132882577,2d72dfcb43d4463a83f972036e7af0db,10
;Gerber Generator version 0.2
;Holesize 1 = 0.305 mm
T01C0.305
;Holesize 2 = 0.966 mm
T02C0.966
;Holesize 3 = 1.000 mm
T03C1.000
%
G05
G90
T01
X029715Y031080
X035262Y026388
X026275Y020995
X029715Y036199
X017871Y030354
X016369Y037334
X020144Y032657
T02
X005969Y050673
X005969Y048133
X005969Y004826
X005969Y007366
T03
X011938Y019431
X014478Y019431
X017018Y019431
X019558Y019431
X022098Y019431
X024638Y019431
X027178Y019431
X029718Y019431
X032258Y019431
X034798Y019431
X037338Y019431
X039878Y019431
X042418Y019431
X044958Y019431
X044958Y034671
X042418Y034671
X039878Y034671
X037338Y034671
X034798Y034671
X032258Y034671
X029718Y034671
X027178Y034671
X024638Y034671
X022098Y034671
X019558Y034671
X017018Y034671
X014478Y034671
X011938Y034671
M30
