G04 Layer: BottomLayer*
G04 EasyEDA v6.5.37, 2023-10-24 23:36:19*
G04 78d52bff66364ecaa542ea5132882577,2d72dfcb43d4463a83f972036e7af0db,10*
G04 Gerber Generator version 0.2*
G04 Scale: 100 percent, Rotated: No, Reflected: No *
G04 Dimensions in millimeters *
G04 leading zeros omitted , absolute positions ,4 integer and 5 decimal *
%FSLAX45Y45*%
%MOMM*%

%AMMACRO1*21,1,$1,$2,0,0,$3*%
%ADD10C,0.2540*%
%ADD11R,5.0000X1.0000*%
%ADD12MACRO1,1.8796X1.8796X0.0000*%
%ADD13R,1.8796X1.8796*%
%ADD14C,1.6510*%
%ADD15R,1.5240X1.5240*%
%ADD16C,0.6096*%
%ADD17C,0.0168*%

%LPD*%
D10*
X1193800Y1943107D02*
G01*
X1193800Y2047273D01*
X2349500Y4762507D02*
G01*
X2003958Y4762507D01*
X1302715Y4061264D01*
X1302715Y2156188D01*
X1193800Y2047273D01*
X3249498Y4762507D02*
G01*
X2971545Y4762507D01*
X2971545Y4762507D02*
G01*
X2572359Y4363321D01*
X1730044Y4363321D01*
X1447800Y4081076D01*
X1447800Y3467107D01*
X1447800Y1943107D02*
G01*
X1447800Y2047273D01*
X2349500Y4508507D02*
G01*
X1817598Y4508507D01*
X1343507Y4034416D01*
X1343507Y2151565D01*
X1447800Y2047273D01*
X1701800Y3467107D02*
G01*
X1701800Y3571273D01*
X1701800Y3571273D02*
G01*
X1736217Y3605690D01*
X1736217Y3727356D01*
X2185288Y4176428D01*
X2639466Y4176428D01*
X2971545Y4508507D01*
X3249498Y4508507D02*
G01*
X2971545Y4508507D01*
X1701800Y2047273D02*
G01*
X1591843Y2157229D01*
X1591843Y3605537D01*
X1695450Y3709144D01*
X1695450Y3752451D01*
X2071547Y4128549D01*
X2071547Y4254507D01*
X2349500Y4254507D02*
G01*
X2071547Y4254507D01*
X1701800Y1943107D02*
G01*
X1701800Y2047273D01*
X3249498Y4254507D02*
G01*
X2971545Y4254507D01*
X1955800Y3467107D02*
G01*
X1955800Y3711252D01*
X2069160Y3824612D01*
X2541650Y3824612D01*
X2971545Y4254507D01*
X2349500Y4000507D02*
G01*
X2071547Y4000507D01*
X1955800Y1943107D02*
G01*
X1955800Y2047273D01*
X1955800Y2047273D02*
G01*
X1846630Y2156442D01*
X1846630Y3775590D01*
X2071547Y4000507D01*
X3249498Y4000507D02*
G01*
X2971545Y4000507D01*
X2209800Y3467107D02*
G01*
X2313965Y3467107D01*
X2313965Y3467107D02*
G01*
X2313965Y3519203D01*
X2366162Y3571400D01*
X2542438Y3571400D01*
X2971545Y4000507D01*
X2209800Y1943107D02*
G01*
X2209800Y2047273D01*
X2349500Y3238507D02*
G01*
X2071547Y3238507D01*
X2071547Y3238507D02*
G01*
X1975104Y3142063D01*
X1975104Y2177803D01*
X2105634Y2047273D01*
X2209800Y2047273D01*
X2463800Y3467107D02*
G01*
X2567965Y3467107D01*
X3249498Y3238507D02*
G01*
X2744470Y3238507D01*
X2567965Y3415012D01*
X2567965Y3467107D01*
X2463800Y1943107D02*
G01*
X2359634Y1943107D01*
X2349500Y2984507D02*
G01*
X2071547Y2984507D01*
X2071547Y2984507D02*
G01*
X2023262Y2936222D01*
X2023262Y2194085D01*
X2072944Y2144402D01*
X2210409Y2144402D01*
X2359634Y1995177D01*
X2359634Y1943107D01*
X2971545Y2984533D02*
G01*
X2971545Y3108002D01*
X3249498Y2984533D02*
G01*
X2971545Y2984533D01*
X2349500Y2730507D02*
G01*
X2071547Y2730507D01*
X2071547Y2730507D02*
G01*
X2071446Y2730406D01*
X2071446Y2414887D01*
X2154732Y2331600D01*
X2585897Y2331600D01*
X2717800Y2199698D01*
X2717800Y1943107D01*
X3249498Y2730507D02*
G01*
X3527475Y2730507D01*
X2971800Y3467107D02*
G01*
X3075965Y3467107D01*
X3075965Y3467107D02*
G01*
X3075965Y3415012D01*
X3128162Y3362815D01*
X3473094Y3362815D01*
X3527602Y3308306D01*
X3527602Y2730634D01*
X3527475Y2730507D01*
X2971800Y1943107D02*
G01*
X2971800Y2047273D01*
X2349500Y2476507D02*
G01*
X2627477Y2476507D01*
X2627477Y2476507D02*
G01*
X2627477Y2391595D01*
X2971800Y2047273D01*
X3249498Y2476507D02*
G01*
X3527475Y2476507D01*
X3526180Y2638839D02*
G01*
X3527475Y2637543D01*
X3527475Y2476507D01*
X2627477Y2222507D02*
G01*
X2627477Y2099520D01*
X2349500Y2222507D02*
G01*
X2627477Y2222507D01*
X3527475Y2222533D02*
G01*
X3584727Y2279784D01*
X3584727Y3362180D01*
X3479800Y3467107D01*
X3249498Y2222533D02*
G01*
X3527475Y2222533D01*
X3479800Y1943107D02*
G01*
X3375634Y1943107D01*
X2349500Y1714507D02*
G01*
X2627477Y1714507D01*
X2627477Y1714507D02*
G01*
X2740406Y1827436D01*
X3312033Y1827436D01*
X3375634Y1891037D01*
X3375634Y1943107D01*
X3249498Y1714507D02*
G01*
X3527475Y1714507D01*
X3733774Y3467107D02*
G01*
X3733774Y3362942D01*
X3733774Y3362942D02*
G01*
X3629482Y3258649D01*
X3629482Y1816514D01*
X3527475Y1714507D01*
X2349500Y1460507D02*
G01*
X2627477Y1460507D01*
X3733774Y1943107D02*
G01*
X3733774Y1838942D01*
X3733774Y1838942D02*
G01*
X3496741Y1601909D01*
X2768879Y1601909D01*
X2627477Y1460507D01*
X3987800Y3467107D02*
G01*
X3987800Y3362942D01*
X3249498Y1460507D02*
G01*
X3527475Y1460507D01*
X3527475Y1460507D02*
G01*
X3838066Y1771098D01*
X3838066Y3213209D01*
X3987800Y3362942D01*
X2349500Y1206533D02*
G01*
X2627477Y1206533D01*
X3987800Y1943107D02*
G01*
X3987800Y1838942D01*
X3987800Y1838942D02*
G01*
X3531285Y1382428D01*
X2803372Y1382428D01*
X2627477Y1206533D01*
X4241800Y3467107D02*
G01*
X4241800Y3362942D01*
X3249498Y1206533D02*
G01*
X3527475Y1206533D01*
X3527475Y1206533D02*
G01*
X4092092Y1771149D01*
X4092092Y3213234D01*
X4241800Y3362942D01*
X2349500Y952533D02*
G01*
X2627477Y952533D01*
X4241800Y1943107D02*
G01*
X4241800Y1838942D01*
X4241800Y1838942D02*
G01*
X3531285Y1128428D01*
X2803372Y1128428D01*
X2627477Y952533D01*
X4495800Y3467107D02*
G01*
X4495800Y3362942D01*
X3249498Y952533D02*
G01*
X3527475Y952533D01*
X3527475Y952533D02*
G01*
X4346092Y1771149D01*
X4346092Y3213234D01*
X4495800Y3362942D01*
X1790700Y1244607D02*
G01*
X1790700Y1366553D01*
X2971545Y3746507D02*
G01*
X2971545Y3619914D01*
X3249498Y3746507D02*
G01*
X2971545Y3746507D01*
X1790700Y1366553D02*
G01*
X1806092Y1381945D01*
X1806092Y2030890D01*
X1787067Y2049914D01*
X1787067Y3035383D01*
X2349500Y3746507D02*
G01*
X2071547Y3746507D01*
X1701800Y4089407D02*
G01*
X1701800Y3967462D01*
X1636903Y3733426D02*
G01*
X1636903Y3902565D01*
X1701800Y3967462D01*
X2071547Y3746507D02*
G01*
X2071547Y3322835D01*
X2014448Y3265736D01*
X2349500Y5016507D02*
G01*
X3249498Y5016507D01*
X2210536Y5016507D02*
G01*
X2349500Y5016507D01*
X2210536Y5016507D02*
G01*
X2071547Y5016507D01*
X1193800Y3467107D02*
G01*
X1193800Y4138759D01*
X2071547Y5016507D01*
X904875Y736607D02*
G01*
X904875Y3028983D01*
X563727Y3370130D01*
X563727Y4780135D01*
X596900Y4813307D01*
X2349500Y698507D02*
G01*
X942975Y698507D01*
X904875Y736607D01*
X904875Y736607D02*
G01*
X596900Y736607D01*
X2488488Y698507D02*
G01*
X2349500Y698507D01*
X2488488Y698507D02*
G01*
X2627477Y698507D01*
X3249498Y698533D02*
G01*
X2627477Y698533D01*
X2627477Y698507D01*
X3388486Y698533D02*
G01*
X3249498Y698533D01*
X3388486Y698533D02*
G01*
X3527475Y698533D01*
X4495800Y1943107D02*
G01*
X4495800Y1838942D01*
X4495800Y1838942D02*
G01*
X3527475Y870618D01*
X3527475Y698533D01*
X774700Y1244607D02*
G01*
X774700Y1122662D01*
X774700Y1122662D02*
G01*
X471449Y819411D01*
X471449Y608058D01*
X596900Y482607D01*
X685800Y4089407D02*
G01*
X685800Y4211353D01*
X685800Y4211353D02*
G01*
X713028Y4238581D01*
X713028Y4951178D01*
X596900Y5067307D01*
D11*
G01*
X2349500Y4762500D03*
G01*
X2349500Y4508500D03*
G01*
X2349500Y4254500D03*
G01*
X2349500Y4000500D03*
G01*
X2349500Y3238500D03*
G01*
X2349500Y2984500D03*
G01*
X2349500Y2730500D03*
G01*
X2349500Y2476500D03*
G01*
X2349500Y2222500D03*
G01*
X2349500Y1714500D03*
G01*
X3249498Y1714500D03*
G01*
X3249498Y2222525D03*
G01*
X3249498Y2476500D03*
G01*
X3249498Y2730500D03*
G01*
X3249498Y2984525D03*
G01*
X3249498Y3238500D03*
G01*
X3249498Y4000500D03*
G01*
X3249498Y4254500D03*
G01*
X3249498Y4508500D03*
G01*
X3249498Y4762500D03*
G01*
X3249498Y5016500D03*
G01*
X2349500Y1460500D03*
G01*
X2349500Y1206525D03*
G01*
X2349500Y952525D03*
G01*
X2349500Y698500D03*
G01*
X3249498Y698525D03*
G01*
X3249498Y952525D03*
G01*
X3249498Y1206525D03*
G01*
X3249498Y1460500D03*
G01*
X2349500Y5016500D03*
G01*
X2349500Y3746500D03*
G01*
X3249498Y3746500D03*
D12*
G01*
X1790700Y1244600D03*
G01*
X774700Y1244600D03*
D13*
G01*
X685800Y4089400D03*
D12*
G01*
X1701800Y4089400D03*
D14*
G01*
X596900Y5067300D03*
G01*
X596900Y4813300D03*
G01*
X596900Y482600D03*
G01*
X596900Y736600D03*
D15*
G01*
X1193800Y1943100D03*
G01*
X1447800Y1943100D03*
G01*
X1701800Y1943100D03*
G01*
X1955800Y1943100D03*
G01*
X2209800Y1943100D03*
G01*
X2463800Y1943100D03*
G01*
X2717800Y1943100D03*
G01*
X2971800Y1943100D03*
G01*
X3225800Y1943100D03*
G01*
X3479800Y1943100D03*
G01*
X3733774Y1943100D03*
G01*
X3987800Y1943100D03*
G01*
X4241800Y1943100D03*
G01*
X4495800Y1943100D03*
G01*
X4495800Y3467100D03*
G01*
X4241800Y3467100D03*
G01*
X3987800Y3467100D03*
G01*
X3733774Y3467100D03*
G01*
X3479800Y3467100D03*
G01*
X3225800Y3467100D03*
G01*
X2971800Y3467100D03*
G01*
X2717800Y3467100D03*
G01*
X2463800Y3467100D03*
G01*
X2209800Y3467100D03*
G01*
X1955800Y3467100D03*
G01*
X1701800Y3467100D03*
G01*
X1447800Y3467100D03*
G01*
X1193800Y3467100D03*
D16*
G01*
X2971545Y3107994D03*
G01*
X3526180Y2638831D03*
G01*
X2627477Y2099513D03*
G01*
X2971545Y3619906D03*
G01*
X1787067Y3035376D03*
G01*
X1636903Y3733419D03*
G01*
X2014448Y3265728D03*
M02*
